<svg xmlns="http://www.w3.org/2000/svg" viewBox="-255 347 100 100"><path fill="#2E2E2E" d="M-182.4 352.4c-.1-.1-.3-.2-.5-.2-6.7-3.3-14.2-5.2-22.1-5.2-27.6 0-50 22.4-50 50s22.4 50 50 50 50-22.4 50-50c0-19.4-11.2-36.3-27.4-44.6zm-22.6 88.7c-24.3 0-44.1-19.8-44.1-44.1s19.8-44.1 44.1-44.1c6.5 0 12.6 1.4 18.1 3.9v15.4c-2.2-1.7-5-3-8.3-3.6-5.7-1.1-12-.2-17.9 2.5-5.9 2.7-10.7 7-13.4 12.1-2.9 5.3-3.3 10.9-1.1 15.7.3.6.6 1.3 1 1.9-2.8 5.1-3.3 10.7-1 15.6 2.9 6.2 9.8 9.6 17.7 9.6 4.2 0 8.6-1 12.9-3 6.6-3.1 11.8-8.2 14.4-13.9.6-1.5 0-3.2-1.5-3.9-1.5-.7-3.2 0-3.9 1.5-2 4.5-6.1 8.5-11.5 11-9.5 4.4-19.8 2.7-22.8-3.8-1.2-2.6-1.1-5.7.1-8.7 2.6 1.7 5.7 2.9 9.3 3.2 3.3.4 6.7.2 10.6-.9 10.2-2.7 16.6-9.3 15-15.2-.8-3.2-3.7-5.4-8.1-6.3-3.7-.8-8.1-.5-12.5.6-2.6.7-5 1.7-7.2 2.9l-1.3.8c-2.4 1.5-4.6 3.2-6.4 5.1-.9-2.8-.5-6.1 1.3-9.4 2.2-4 6-7.4 10.8-9.6 4.8-2.2 9.8-3 14.3-2.1 4.1.8 7.1 2.9 8.6 5.9.5 1.1.8 2.2.8 3.4.1 1.6 1.4 2.8 2.9 2.8h.1c1.6 0 2.9-1.3 2.9-2.9V360c12.1 7.9 20.1 21.5 20.1 37 .1 24.3-19.7 44.1-44 44.1zm-14-41c1.5-1.8 3.5-3.4 5.7-4.8l1.2-.7c1.7-1 3.7-1.8 5.8-2.3 3.5-.9 7.1-1.2 9.8-.6 2 .4 3.4 1.2 3.6 2.1.5 1.9-3.6 6.1-10.9 8-3.2.9-5.8 1.1-8.4.7-2.7-.3-5-1.1-6.8-2.4z"/></svg>