<?xml version="1.0" encoding="utf-8"?>
<svg version="1.1" id="Layer_1" xmlns="http://www.w3.org/2000/svg" xmlns:xlink="http://www.w3.org/1999/xlink" x="0px" y="0px"
	 viewBox="0 0 500 500" enable-background="new 0 0 500 500" xml:space="preserve">
<g>
	<path fill="#FFFFFF" d="M168.1,3.2v194.6c0,44.3,7.2,75.4,21.7,93.1c14.5,17.7,37.8,26.6,70,26.6c7,0,14.2-0.2,21.7-0.7
		c7.5-0.5,14.5-1,21-1.8c6.5-0.7,12.5-1.4,17.8-2.1c5.4-0.7,9.2-1.5,11.6-2.5V3.2H397v353.5c-14.9,3.7-34.2,7.7-57.8,11.9
		c-23.6,4.2-49.3,6.3-77.3,6.3c-25.7,0-46.1-2.7-61.2-8c-15.2-5.4-27.4-13.2-36.8-23.5c1.4,13.1,2.3,26.2,2.8,39.5
		c0.5,13.3,0.7,27.2,0.7,41.7v72.1H103V3.2H168.1z"/>
</g>
</svg>
